<svg xmlns="http://www.w3.org/2000/svg" viewBox="0 0 32 32" width="32" height="32">
  <defs>
    <linearGradient id="primaryGrad" x1="0%" y1="0%" x2="100%" y2="100%">
      <stop offset="0%" stop-color="#556df6" />
      <stop offset="100%" stop-color="#3c52e0" />
    </linearGradient>
    <linearGradient id="secondaryGrad" x1="0%" y1="0%" x2="100%" y2="100%">
      <stop offset="0%" stop-color="#10b981" />
      <stop offset="100%" stop-color="#059669" />
    </linearGradient>
  </defs>
  <!-- Squircle BG -->
  <rect width="32" height="32" rx="9" fill="#0d0e15" />
  
  <!-- Kanban Columns / Bar Chart Flow -->
  <path d="M7 24V14c0-1.1.9-2 2-2h4v12H7z" fill="url(#primaryGrad)" />
  <path d="M14 24V10c0-1.1.9-2 2-2h4v16h-6z" fill="#3c52e0" opacity="0.9" />
  <path d="M21 24V16c0-1.1.9-2 2-2h2v10h-4z" fill="url(#secondaryGrad)" />
  
  <!-- Flow line chart trend overlapping the columns -->
  <path d="M9 16l7-5 7 5" fill="none" stroke="#ffffff" stroke-width="2.5" stroke-linecap="round" stroke-linejoin="round" />
  <circle cx="9" cy="16" r="2.2" fill="#ffffff" />
  <circle cx="16" cy="11" r="2.2" fill="#ffffff" />
  <circle cx="23" cy="16" r="2.2" fill="#ffffff" />
</svg>